<svg xmlns="http://www.w3.org/2000/svg" viewBox="0 0 64 64" width="64" height="64">
  <defs>
    <linearGradient id="neon" x1="0" y1="0" x2="1" y2="1">
      <stop offset="0" stop-color="#00f0ff"/>
      <stop offset="1" stop-color="#b14bff"/>
    </linearGradient>
    <filter id="glow" x="-50%" y="-50%" width="200%" height="200%">
      <feGaussianBlur stdDeviation="1.2" result="b"/>
      <feMerge><feMergeNode in="b"/><feMergeNode in="SourceGraphic"/></feMerge>
    </filter>
  </defs>
  <rect x="2" y="2" width="60" height="60" rx="16" fill="#060d18"/>
  <g fill="#00f0ff" filter="url(#glow)">
    <rect x="22" y="9" width="4" height="6" rx="1.5"/><rect x="30" y="9" width="4" height="6" rx="1.5"/><rect x="38" y="9" width="4" height="6" rx="1.5"/>
    <rect x="22" y="49" width="4" height="6" rx="1.5"/><rect x="30" y="49" width="4" height="6" rx="1.5"/><rect x="38" y="49" width="4" height="6" rx="1.5"/>
    <rect x="9" y="22" width="6" height="4" rx="1.5"/><rect x="9" y="30" width="6" height="4" rx="1.5"/><rect x="9" y="38" width="6" height="4" rx="1.5"/>
    <rect x="49" y="22" width="6" height="4" rx="1.5"/><rect x="49" y="30" width="6" height="4" rx="1.5"/><rect x="49" y="38" width="6" height="4" rx="1.5"/>
  </g>
  <rect x="16" y="16" width="32" height="32" rx="9" fill="#0c1626" stroke="url(#neon)" stroke-width="2.4" filter="url(#glow)"/>
  <path d="M32 24 L40 32 L32 40 L24 32 Z" fill="url(#neon)" filter="url(#glow)"/>
</svg>
